<svg width="1600" height="260" viewBox="0 0 1600 260" fill="none" xmlns="http://www.w3.org/2000/svg">
  <rect width="1600" height="260" rx="28" fill="#F5EFE5"/>
  <circle cx="140" cy="130" r="82" fill="#3C9D9B"/>
  <circle cx="140" cy="130" r="48" fill="#FFFFFF"/>
  <path d="M140 88L147 116L176 130L147 144L140 172L133 144L104 130L133 116Z" fill="#F9D37A"/>
  <rect x="90" y="176" width="100" height="16" rx="8" fill="#F28C6B"/>
  <text x="280" y="112" font-family="Arial, sans-serif" font-size="54" font-weight="700" fill="#1F2A44">Training</text>
  <text x="280" y="160" font-family="Arial, sans-serif" font-size="28" fill="#546178">Practice, praise, and positive progress every session.</text>
  <rect x="1110" y="60" width="390" height="140" rx="28" fill="#FFFFFF" stroke="#E2D7C8" stroke-width="3"/>
  <circle cx="1185" cy="130" r="38" fill="#F9D37A"/>
  <path d="M1170 130H1200" stroke="#1F2A44" stroke-width="8" stroke-linecap="round"/>
  <path d="M1185 115V145" stroke="#1F2A44" stroke-width="8" stroke-linecap="round"/>
  <rect x="1250" y="102" width="96" height="18" rx="9" fill="#3C9D9B"/>
  <rect x="1250" y="130" width="132" height="18" rx="9" fill="#F28C6B"/>
  <rect x="1250" y="158" width="104" height="18" rx="9" fill="#F9D37A"/>
</svg>
